<svg width="42" height="40" viewBox="0 0 42 40" fill="none" xmlns="http://www.w3.org/2000/svg">
<path d="M6.70219 26.6343C6.20629 25.8018 6.54875 24.723 7.43403 24.329L15.2748 20.8392C15.7488 20.6282 16.2951 20.6574 16.7439 20.9177L21.2242 23.516C21.6706 23.7749 21.9667 24.2312 22.0211 24.7443L22.936 33.36C23.038 34.3207 22.2805 35.1559 21.3144 35.148L17.69 35.1182C16.7146 35.1102 15.9682 34.247 16.101 33.2807L16.8258 28.008C16.8852 27.5755 16.6767 27.1501 16.2983 26.9322C15.9195 26.7141 15.4462 26.7476 15.1019 27.017L10.9742 30.2464C10.2068 30.8468 9.08672 30.6374 8.5881 29.8003L6.70219 26.6343Z" fill="white"/>
<path fill-rule="evenodd" clip-rule="evenodd" d="M23.7292 23.2802L30.6581 28.3769C31.0504 28.6655 31.6069 28.5444 31.8438 28.1189L33.6394 24.8933C33.8758 24.4685 33.6867 23.9327 33.2361 23.7503L28.3268 21.7643C27.6158 21.4767 27.1505 20.7865 27.1505 20.0195C27.1505 19.2574 27.61 18.5705 28.3145 18.2798L33.2409 16.2461C33.6893 16.061 33.875 15.5254 33.6373 15.1025L31.8482 11.9186C31.6102 11.4952 31.0553 11.3755 30.664 11.6634L23.7292 16.7643C23.5221 16.9167 23.3997 17.1586 23.3997 17.4157V22.6288C23.3997 22.886 23.5221 23.1278 23.7292 23.2802ZM23.2501 23.9316C22.8357 23.6268 22.5911 23.1431 22.5911 22.6288V17.4157C22.5911 16.9014 22.8357 16.4177 23.2501 16.1129L30.1849 11.0119C30.9674 10.4363 32.0772 10.6756 32.5531 11.5225L34.3423 14.7063C34.8176 15.5522 34.4463 16.6234 33.5494 16.9936L28.623 19.0272C28.2212 19.1931 27.9591 19.5849 27.9591 20.0195C27.9591 20.4569 28.2245 20.8506 28.63 21.0147L33.5393 23.0007C34.4406 23.3653 34.8188 24.4371 34.3459 25.2866L32.5504 28.5122C32.0766 29.3633 30.9635 29.6055 30.1789 29.0284L23.2501 23.9316Z" fill="#2DEBFC"/>
<path d="M21.2243 16.469C21.6707 16.2102 21.9667 15.7538 22.0212 15.2407L22.9344 6.64009C23.037 5.67404 22.2708 4.83618 21.2995 4.85222L17.6745 4.91208C16.7046 4.92809 15.9669 5.78841 16.099 6.74943L16.8256 12.0354C16.8852 12.469 16.676 12.8955 16.2967 13.1139C15.9185 13.3315 15.4464 13.2992 15.1015 13.0319L10.9172 9.78983C10.148 9.19383 9.03041 9.40713 8.53478 10.2446L6.69521 13.3527C6.2026 14.185 6.54579 15.2608 7.4294 15.6541L15.2749 19.1459C15.7489 19.3568 16.2952 19.3276 16.7439 19.0674L21.2243 16.469Z" fill="#2C85FC"/>
</svg>
