<svg width="38" height="40" viewBox="0 0 38 40" fill="none" xmlns="http://www.w3.org/2000/svg">
<path d="M0.307543 28.7592C-0.347192 27.6601 0.104961 26.2358 1.27379 25.7156L11.6261 21.1079C12.2518 20.8294 12.9731 20.8679 13.5656 21.2116L19.4811 24.6422C20.0704 24.984 20.4613 25.5864 20.5332 26.2639L21.7411 37.6392C21.8757 38.9076 20.8756 40.0104 19.6001 39.9999L14.8147 39.9606C13.5269 39.95 12.5414 38.8104 12.7168 37.5345L13.6738 30.573C13.7522 30.0019 13.4769 29.4403 12.9774 29.1526C12.4772 28.8646 11.8523 28.9088 11.3977 29.2645L5.94788 33.5283C4.93472 34.321 3.45585 34.0445 2.79752 32.9393L0.307543 28.7592Z" fill="white"/>
<path fill-rule="evenodd" clip-rule="evenodd" d="M22.7884 24.3308L31.9366 31.0601C32.4546 31.4411 33.1894 31.2812 33.5021 30.7193L35.8728 26.4606C36.185 25.8998 35.9353 25.1923 35.3403 24.9516L28.8586 22.3294C27.9199 21.9497 27.3055 21.0383 27.3055 20.0257C27.3055 19.0196 27.9123 18.1127 28.8423 17.7287L35.3467 15.0437C35.9388 14.7993 36.1839 14.0922 35.8701 13.5338L33.5079 9.33009C33.1937 8.77101 32.4611 8.61308 31.9445 8.99307L22.7884 15.7279C22.5149 15.9291 22.3534 16.2484 22.3534 16.588V23.4708C22.3534 23.8103 22.5149 24.1296 22.7884 24.3308ZM22.1558 25.1909C21.6087 24.7885 21.2857 24.1499 21.2857 23.4708V16.588C21.2857 15.9088 21.6087 15.2702 22.1558 14.8678L31.3118 8.133C32.345 7.37302 33.8104 7.68889 34.4387 8.80705L36.8009 13.0107C37.4285 14.1276 36.9383 15.5418 35.7541 16.0306L29.2497 18.7156C28.7192 18.9346 28.3732 19.4519 28.3732 20.0257C28.3732 20.6033 28.7236 21.1231 29.259 21.3397L35.7407 23.9618C36.9308 24.4432 37.4301 25.8583 36.8057 26.9799L34.435 31.2386C33.8095 32.3623 32.3399 32.6822 31.304 31.9201L22.1558 25.1909Z" fill="#2DEBFC"/>
<path d="M19.4812 15.338C20.0705 14.9962 20.4614 14.3938 20.5334 13.7163L21.7391 2.36083C21.8745 1.08535 20.8629 -0.0208792 19.5804 0.000299176L14.7944 0.0793333C13.5138 0.100481 12.5398 1.23636 12.7142 2.50519L13.6735 9.48429C13.7522 10.0568 13.4761 10.6199 12.9752 10.9082C12.476 11.1956 11.8526 11.1528 11.3972 10.8L5.87265 6.51946C4.85704 5.73254 3.38152 6.01417 2.72714 7.11982L0.298356 11.2235C-0.352041 12.3225 0.101072 13.7428 1.26771 14.262L11.6262 18.8723C12.2519 19.1508 12.9733 19.1123 13.5657 18.7687L19.4812 15.338Z" fill="#2C85FC"/>
</svg>
